<svg width="80" height="80" viewBox="0 0 80 80" fill="none" xmlns="http://www.w3.org/2000/svg">
<path d="M72.4816 61.1659L54.4722 72.7069C53.4243 73.3703 52.2106 73.7252 50.9704 73.7307H25.7013C19.5586 73.7307 17.8949 70.5779 17.8949 70.5779V70.2405H14.4047V56.2797H17.8949V56.3611C19.9308 53.2548 23.9562 52.1844 26.4923 51.8238H26.5039C27.2471 51.7079 27.9972 51.6418 28.7492 51.626H29.3426C31.347 51.6316 33.286 52.3396 34.8222 53.627C36.3483 54.9268 38.2855 55.6441 40.2902 55.6513H45.3161C47.0297 55.6607 48.6064 56.589 49.4461 58.0828L49.5275 58.2225C50.1448 59.3107 50.1883 60.6327 49.6438 61.7591C49.4933 62.0633 49.3015 62.3452 49.0738 62.5968H51.2726C51.6844 62.6012 52.0936 62.5343 52.4826 62.399L68.3281 56.838L70.2593 56.1515C70.5368 56.0581 70.8276 56.0109 71.1203 56.0119C71.9557 56.021 72.7354 56.4325 73.2144 57.1172C73.6584 57.7499 73.8308 58.534 73.6931 59.2945C73.5555 60.0552 73.1192 60.729 72.4816 61.1659Z" fill="#F5B741"/>
<path d="M67.828 61.1656L49.8186 72.7066C48.7707 73.37 47.5571 73.7249 46.3168 73.7304H25.7013C19.5586 73.7304 17.8949 70.5776 17.8949 70.5776V70.2402H14.4047V56.2794H17.8949V56.3607C19.9308 53.2545 23.9562 52.1841 26.4923 51.8235H26.5039C27.8526 52.1217 29.1096 52.7402 30.1686 53.6268C31.6948 54.9266 33.632 55.6439 35.6367 55.6511H40.6626C42.3762 55.6605 43.9529 56.5888 44.7926 58.0827L44.874 58.2223C45.6763 59.6268 45.4938 61.3866 44.4202 62.5966H46.6191C47.0308 62.601 47.4401 62.5342 47.829 62.3988L49.644 61.759C49.4934 62.0631 49.3016 62.3451 49.0739 62.5966H51.2728C51.6845 62.601 52.0938 62.5342 52.4827 62.3988L68.3282 56.8378C68.4148 56.923 68.4927 57.0165 68.561 57.117C69.005 57.7497 69.1773 58.5338 69.0396 59.2943C68.9019 60.0549 68.4655 60.7287 67.828 61.1656Z" fill="#F5B741"/>
<path d="M73.7386 26.0314C73.739 31.277 71.6555 36.3078 67.9463 40.0169C64.2372 43.7261 59.2064 45.8097 53.9609 45.8091C51.9113 45.813 49.8738 45.495 47.9228 44.8668L42.3269 49.2993V42.0164C34.7794 36.5229 32.1016 26.4995 35.9038 17.9739C39.7061 9.44823 48.9526 4.74273 58.0828 6.68716C67.2131 8.63158 73.7399 16.6964 73.7386 26.0314Z" fill="#6FD460"/>
<path d="M7.42458 53.9536H16.7318C17.3744 53.9536 17.8952 54.4744 17.8952 55.117V71.4046C17.8952 72.0472 17.3744 72.568 16.7318 72.568H7.42458C6.78203 72.568 6.26123 72.0472 6.26123 71.4046V55.117C6.26123 54.4746 6.78203 53.9536 7.42458 53.9536Z" fill="#6FD460"/>
<path d="M53.9605 17.8878C55.2456 17.8878 56.2874 16.8461 56.2874 15.561C56.2874 14.2759 55.2456 13.2341 53.9605 13.2341C52.6754 13.2341 51.6337 14.2759 51.6337 15.561C51.6337 16.8461 52.6754 17.8878 53.9605 17.8878Z" fill="#F5B741"/>
<path d="M51.634 27.1948V34.1752H49.3071V38.8289H58.6144V34.1752H56.2875V22.5413H49.3071V27.1948H51.634Z" fill="#F5B741"/>
<path d="M73.738 26.0315C73.7384 31.277 71.6549 36.3078 67.9458 40.017C64.2366 43.7261 59.2058 45.8098 53.9603 45.8092C53.367 45.8092 52.7736 45.7859 52.1919 45.7278C62.4035 44.8382 70.2418 36.2923 70.2479 26.0422C70.2541 15.792 62.4255 7.2368 52.2151 6.33521C52.795 6.27849 53.3775 6.25136 53.9602 6.25381C59.2057 6.25341 64.2365 8.33689 67.9456 12.046C71.6548 15.7552 73.7384 20.786 73.738 26.0315Z" fill="#6FD460"/>
<path d="M7.4245 73.7309H16.7317C17.4262 73.7283 18.0827 73.414 18.5201 72.8745C20.6275 74.3143 23.1489 75.0238 25.698 74.8944H50.9668C52.4316 74.8892 53.8649 74.4696 55.1012 73.6839L73.1135 62.1402C74.0101 61.5497 74.6284 60.6203 74.8268 59.5652C75.0365 58.4758 74.7941 57.348 74.1553 56.4408C73.1904 55.0878 71.453 54.5268 69.8789 55.0599L52.0871 61.3023C51.8268 61.3934 51.5528 61.4388 51.2769 61.4363H50.9998C51.3555 60.1706 51.1923 58.8152 50.5465 57.67L50.4555 57.5053C49.4055 55.6548 47.4478 54.5051 45.3202 54.4894H40.294C38.561 54.4773 36.8872 53.8575 35.5642 52.7381C33.82 51.2761 31.6187 50.4712 29.3428 50.4629H28.7532C28.4603 50.4629 22.4959 50.5173 18.6467 53.7996C18.2137 53.1681 17.4974 52.7904 16.7317 52.7896H7.4245C6.14008 52.7911 5.09916 53.8319 5.09766 55.1164V71.4041C5.09916 72.6885 6.14008 73.7294 7.4245 73.7309ZM28.753 52.7897H29.3427C31.0735 52.7976 32.7467 53.4113 34.0724 54.5241C35.814 55.993 38.0157 56.804 40.2939 56.8163H45.3202C46.6084 56.8187 47.7951 57.5161 48.4241 58.6403L48.5151 58.805C48.9748 59.6277 48.9524 60.6349 48.4566 61.4363H42.7299C40.7736 61.4419 38.8666 62.0505 37.2686 63.1791L36.5709 63.6688C36.2308 63.9075 36.0439 64.3094 36.0804 64.7234C36.1171 65.1373 36.3716 65.5002 36.7484 65.6754C37.1253 65.8506 37.5669 65.8116 37.907 65.5729L38.6023 65.0855C39.8096 64.2309 41.2508 63.7691 42.7299 63.763H51.2771C51.8204 63.7656 52.3601 63.6741 52.8722 63.4927L70.638 57.2594C71.2383 57.0554 71.901 57.2738 72.2627 57.7945C72.5328 58.182 72.6337 58.6627 72.5422 59.1261C72.4672 59.5581 72.2184 59.9404 71.8537 60.1838L53.854 71.7194C52.9908 72.2687 51.9901 72.5627 50.9671 72.5676H25.698C21.2501 72.5676 19.5186 70.8185 19.0585 70.2242V56.7264C21.9 52.8516 28.6849 52.7897 28.753 52.7897ZM7.4245 55.1164H16.7317V71.4041H7.4245V55.1164Z" fill="#17412C"/>
<path d="M10.0892 65.9251C9.75352 66.2579 9.65276 66.7607 9.83395 67.1972C10.0151 67.6338 10.4426 67.9172 10.9152 67.9145C11.2232 67.9097 11.518 67.7893 11.7413 67.5771C11.844 67.4639 11.9266 67.334 11.9856 67.193C12.0452 67.0531 12.0768 66.903 12.0787 66.751C12.0742 66.443 11.9537 66.1481 11.7413 65.9249C11.2748 65.4944 10.5557 65.4944 10.0892 65.9251Z" fill="#17412C"/>
<path d="M53.96 19.0507C55.8876 19.0507 57.4502 17.488 57.4502 15.5605C57.4502 13.633 55.8876 12.0703 53.96 12.0703C52.0325 12.0703 50.4698 13.633 50.4698 15.5605C50.472 17.4872 52.0333 19.0487 53.96 19.0507ZM53.96 14.3972C54.6026 14.3972 55.1234 14.918 55.1234 15.5605C55.1234 16.2031 54.6026 16.7239 53.96 16.7239C53.3175 16.7239 52.7967 16.2029 52.7967 15.5605C52.7974 14.9182 53.3178 14.3977 53.96 14.3972Z" fill="#17412C"/>
<path d="M58.6142 33.0127H57.4508V22.5422C57.4509 22.2336 57.3284 21.9376 57.1101 21.7194C56.8918 21.5011 56.596 21.3787 56.2873 21.3787H49.3069C48.9984 21.3785 48.7024 21.5011 48.4841 21.7194C48.266 21.9375 48.1434 22.2335 48.1434 22.5422V27.1957C48.1433 27.5042 48.2659 27.8002 48.4841 28.0185C48.7023 28.2366 48.9983 28.3592 49.3069 28.3592H50.4703V33.0127H49.3069C48.9984 33.0126 48.7024 33.1352 48.4841 33.3535C48.266 33.5716 48.1434 33.8676 48.1434 34.1762V38.8298C48.1433 39.1383 48.2659 39.4343 48.4841 39.6526C48.7023 39.8707 48.9983 39.9933 49.3069 39.9933H58.6142C58.9227 39.9934 59.2187 39.8709 59.437 39.6526C59.6551 39.4344 59.7777 39.1385 59.7777 38.8298V34.1762C59.7778 33.8677 59.6552 33.5717 59.437 33.3535C59.2187 33.1352 58.9227 33.0126 58.6142 33.0127ZM57.4507 37.6663H50.4703V35.3395H51.6336C51.9422 35.3396 52.2381 35.217 52.4564 34.9988C52.6746 34.7806 52.7971 34.4846 52.7971 34.176V27.1956C52.7973 26.887 52.6747 26.5911 52.4564 26.3728C52.2383 26.1546 51.9423 26.0321 51.6336 26.0321H50.4703V23.7052H55.1238V34.1758C55.1237 34.4844 55.2463 34.7803 55.4645 34.9986C55.6827 35.2168 55.9787 35.3393 56.2873 35.3393H57.4507V37.6663Z" fill="#17412C"/>
<path d="M53.9606 5.09082C45.0015 5.08864 37.0339 10.7873 34.141 19.2666C31.248 27.7459 34.071 37.1261 41.1632 42.6002V49.3001C41.1632 49.7463 41.4184 50.1532 41.8202 50.3474C42.222 50.5417 42.6994 50.4889 43.0491 50.2117L48.1662 46.1586C56.0323 48.4227 64.4964 45.8967 69.8348 39.6916C75.1731 33.4866 76.4073 24.7402 72.994 17.3004C69.5806 9.86053 62.1461 5.09137 53.9606 5.09082ZM53.9606 44.6464C52.0324 44.6495 50.1156 44.3505 48.2799 43.7602C47.9096 43.6418 47.5049 43.7151 47.1995 43.9557L43.49 46.8943V42.0174C43.4902 41.6445 43.3114 41.2943 43.0095 41.0756C35.6157 35.6856 33.2384 25.7195 37.4032 17.5724C41.568 9.42521 51.0383 5.51551 59.7375 8.35211C68.4367 11.1887 73.7821 19.9293 72.3438 28.9654C70.9054 38.0015 63.1106 44.6509 53.9606 44.6464Z" fill="#17412C"/>
</svg>
