<svg width="80" height="80" viewBox="0 0 80 80" fill="none" xmlns="http://www.w3.org/2000/svg">
<path d="M48.1426 60.0779V66.8791H50.9888C51.2836 66.8791 52.5519 67.5633 52.8504 67.7932C53.924 68.6184 55.094 70.695 54.2503 71.9466L26.5877 71.9874C25.7959 71.7556 26.3893 69.8773 26.6544 69.3341C27.0883 68.4403 28.7515 66.881 29.7528 66.881H32.599V60.0798H14.3463C11.7171 60.0798 8.91725 57.3597 8.72627 54.7342L8.7207 14.0644C9.03962 11.2442 11.2758 9.05992 14.0645 8.71875H66.4008C69.3101 8.93013 71.5221 11.1218 72.0005 13.9439L71.9523 55.0883C71.6408 57.5563 68.8836 60.0779 66.3934 60.0779H48.1426ZM63.5491 58.691C67.1629 58.6465 69.9312 58.7615 70.7489 54.4412L70.7712 14.6188C70.0184 9.90358 67.022 10.0278 63.1319 9.97404C47.0153 9.74783 30.8783 10.1465 14.7579 9.96847C11.8265 10.1965 10.1818 12.0025 9.96857 14.8951V53.77C10.0112 56.2435 11.7022 58.3795 14.2091 58.6892C30.6521 58.539 47.1098 58.895 63.5491 58.6892V58.691ZM43.7018 60.0779C40.4663 60.065 37.2233 60.0872 33.9859 60.0779V66.8791C37.2215 66.8532 40.4663 66.9125 43.7018 66.8791C44.501 66.8699 45.8453 67.0071 46.5462 66.8791C46.6611 66.8587 46.8929 66.7679 46.8929 66.6714V60.0779C45.8305 60.0742 44.7624 60.0817 43.7 60.0779H43.7018ZM53.1397 70.7655C52.8615 69.2006 51.5673 68.242 50.0228 68.1233C43.6907 67.6319 36.719 68.4941 30.3202 68.1418C28.9907 68.3866 27.7261 69.3433 27.6019 70.7674H53.1397V70.7655Z" fill="white"/>
<path d="M63.1321 9.9778C64.5134 10.9513 65.6148 12.2881 65.9078 14.0032L14.276 14.0719L14.0276 14.3778L13.9923 48.7786C13.9571 49.2199 14.1518 49.5388 14.6191 49.5406L66.1878 49.5351C66.0543 51.634 66.5327 54.4617 65.6148 56.3882C65.1587 57.3449 64.3911 58.0848 63.5493 58.6948C47.11 58.8987 30.6522 58.5427 14.2093 58.6948C11.7024 58.3851 10.0114 56.2491 9.96875 53.7756V14.8988C10.182 12.0063 11.8266 10.2003 14.7581 9.97224C30.8784 10.1502 47.0155 9.75159 63.1321 9.9778ZM40.2013 51.5061C36.7229 51.7731 37.1642 57.0075 40.5759 56.7553C43.982 56.505 43.5704 51.2465 40.2013 51.5061Z" fill="#1A6BB2"/>
<path d="M63.5491 58.6876C64.3891 58.0776 65.1586 57.3377 65.6147 56.381C66.5325 54.4545 66.0541 51.6268 66.1876 49.5279C66.5455 49.5075 66.7532 49.2664 66.7495 48.9104V14.6116C66.7736 14.1277 66.3248 13.9998 65.9095 13.9942C65.6165 12.2809 64.5152 10.9422 63.1338 9.96875C67.022 10.0225 70.0203 9.89829 70.7731 14.6135L70.7508 54.4359C69.9331 58.7562 67.1648 58.6412 63.551 58.6857L63.5491 58.6876Z" fill="#1A6BB2"/>
<path d="M43.7023 60.0745V66.8757C40.4667 66.909 37.2219 66.8497 33.9863 66.8757V60.0745C37.2219 60.0838 40.4649 60.0615 43.7023 60.0745Z" fill="#1A6BB2"/>
<path d="M53.1403 70.7683H27.6025C27.7268 69.3443 28.9913 68.3875 30.3208 68.1428C36.7196 68.4951 43.6913 67.6329 50.0234 68.1242C51.5679 68.2448 52.8622 69.2015 53.1403 70.7665V70.7683Z" fill="#1A6BB2"/>
<path d="M43.7021 60.0792C44.7646 60.0829 45.8326 60.0755 46.8951 60.0792V66.6727C46.8951 66.771 46.6633 66.86 46.5483 66.8804C45.8474 67.0083 44.5013 66.8711 43.704 66.8804V60.0792H43.7021Z" fill="#1A6BB2"/>
<path d="M65.9076 14C66.3211 14.0056 66.7716 14.1316 66.7475 14.6174V48.9144C66.7494 49.2704 66.5417 49.5133 66.1838 49.5318L14.6151 49.5374C14.1479 49.5374 13.9532 49.2166 13.9884 48.7753L14.0236 14.3745L14.2721 14.0686L65.9039 14H65.9076ZM63.2709 15.2479C47.2674 15.1236 31.2528 15.3406 15.2493 15.2479V48.2803C31.2528 48.1875 47.2693 48.4045 63.2709 48.2803C64.0089 48.2747 64.7543 48.284 65.4922 48.2803V15.2479C64.7543 15.2442 64.0089 15.2534 63.2709 15.2479Z" fill="white"/>
<path d="M40.2007 51.5014C43.5698 51.2436 43.9814 56.5003 40.5753 56.7506C37.1636 57.0027 36.7241 51.7684 40.2007 51.5014ZM39.4424 53.1813C38.1667 54.3475 40.1878 56.3148 41.3448 55.0132C42.4276 53.795 40.6309 52.0947 39.4424 53.1813Z" fill="white"/>
<path d="M63.2707 15.2504V48.2828C47.2672 48.4071 31.2525 48.1901 15.249 48.2828V15.2504C31.2525 15.3432 47.269 15.1262 63.2707 15.2504ZM18.8907 18.8272C19.0464 18.9811 19.3968 18.9866 19.6138 19.0052C22.9421 19.2889 26.6634 18.7771 30.0362 19.0052C30.9874 18.9088 30.8798 17.5756 29.8934 17.609C26.5726 17.8723 22.7362 17.2641 19.4784 17.6108C18.7609 17.6868 18.4178 18.3581 18.8907 18.8272ZM24.1807 30.9832C19.8901 35.272 22.4414 42.7258 28.3823 43.5472C36.0753 43.1708 44.3394 44.1053 51.9657 43.5713C58.613 43.1041 61.1031 34.4265 55.6833 30.2638C54.9046 29.6668 53.4138 29.3052 53.0615 28.9993C52.8594 28.8231 52.7055 28.2075 52.5034 27.8923C51.7024 26.6389 50.677 25.4985 49.3049 24.844C48.6578 24.5344 47.1151 24.3026 46.7647 24.0541C46.4532 23.8316 45.7968 22.9064 45.3685 22.5356C39.9561 17.8519 31.3193 20.0732 29.0219 26.8725C28.894 27.2526 28.6344 28.7082 28.5399 28.8194C28.4601 28.9158 26.6319 29.3349 26.1591 29.5629C25.5861 29.8411 24.6257 30.5345 24.1769 30.9814L24.1807 30.9832ZM19.204 22.6079C20.1775 22.7692 22.0057 22.6079 23.0904 22.6079C23.5428 22.6079 23.5428 21.2191 23.0904 21.2191H19.204C18.6533 21.2191 18.5068 22.4911 19.204 22.6079ZM25.0595 21.245C24.4643 21.4249 24.4477 22.3946 25.0595 22.5801C25.6714 22.7655 27.8037 22.7803 27.3606 21.6771C27.1177 21.0726 25.5806 21.0874 25.0595 21.245Z" fill="#F5B741"/>
<path d="M63.2715 15.2509C64.0095 15.2565 64.7548 15.2472 65.4928 15.2509V48.2833C64.7548 48.287 64.0095 48.2777 63.2715 48.2833V15.2509Z" fill="#F5B741"/>
<path d="M39.4429 53.1833C40.6315 52.0968 42.4282 53.7971 41.3453 55.0153C40.1883 56.3169 38.1673 54.3496 39.4429 53.1833Z" fill="#F5B741"/>
<path d="M24.1807 30.9836C24.6276 30.5368 25.5899 29.8415 26.1628 29.5652C26.6338 29.3371 28.462 28.9162 28.5436 28.8217C28.6363 28.7104 28.8978 27.2549 29.0257 26.8748C31.323 20.0754 39.9599 17.8523 45.3722 22.5378C45.8006 22.9087 46.4569 23.8339 46.7684 24.0564C47.1189 24.3067 48.6616 24.5385 49.3087 24.8463C50.6808 25.5008 51.7062 26.6411 52.5072 27.8946C52.7093 28.2098 52.8632 28.8272 53.0653 29.0015C53.4176 29.3075 54.9083 29.669 55.6871 30.2661C61.1069 34.4269 58.6167 43.1063 51.9694 43.5736C44.3432 44.1095 36.079 43.1749 28.386 43.5495C22.4452 42.7281 19.8938 35.2724 24.1844 30.9855L24.1807 30.9836ZM35.7898 21.9129C34.1674 22.0353 31.9034 24.2696 31.0987 25.6176C30.2402 27.0528 30.0585 28.3989 29.6283 29.9768C27.5776 30.2438 25.8847 30.7333 24.5497 32.3947C21.4217 36.2885 24.0231 41.877 28.92 42.3127C36.1254 42.9543 44.2449 41.8325 51.5467 42.3202C52.0436 42.2701 52.5201 42.1663 52.9985 42.0365C58.4387 40.5642 58.9653 33.0029 53.9738 30.7222C53.5566 30.5312 52.2086 30.2197 52.0603 30.0695C51.9509 29.9583 51.3817 28.4916 51.0887 28.0577C50.3582 26.9767 49.2605 26.1331 47.9978 25.7363C47.4341 25.5583 46.6683 25.5638 46.2122 25.3024C45.7561 25.041 44.9106 23.7764 44.3246 23.3036C42.0588 21.4791 38.4784 20.6651 35.7916 21.9129H35.7898Z" fill="white"/>
<path d="M18.8914 18.8265C18.4204 18.3574 18.7634 17.6862 19.4791 17.6102C22.7369 17.2634 26.5733 17.8698 29.8941 17.6083C30.8806 17.575 30.9881 18.9081 30.0369 19.0045C26.6641 18.7746 22.9446 19.2882 19.6145 19.0045C19.3976 18.986 19.0471 18.9823 18.8914 18.8265Z" fill="white"/>
<path d="M19.2039 22.6075C18.5068 22.4926 18.6532 21.2188 19.2039 21.2188H23.0903C23.5427 21.2188 23.5427 22.6075 23.0903 22.6075C22.0056 22.6075 20.1774 22.7689 19.2039 22.6075Z" fill="white"/>
<path d="M25.06 21.241C25.581 21.0834 27.1181 21.0686 27.361 21.6731C27.8042 22.7744 25.6663 22.7596 25.06 22.576C24.4536 22.3925 24.4648 21.4209 25.06 21.241Z" fill="white"/>
<path d="M35.7897 21.9083C37.5493 21.7748 40.2119 23.0208 41.5451 24.1333C41.9326 24.456 43.136 25.9319 43.2861 26.0005C43.67 26.1748 44.6212 26.249 45.1941 26.4511C46.3456 26.859 47.4877 27.7397 48.1979 28.7206C48.5094 29.1508 49.1621 30.6842 49.3085 30.801C49.5218 30.9734 50.3988 31.1162 50.7734 31.2794C54.9972 33.1113 56.0708 38.6535 52.9965 42.0337C52.5182 42.1635 52.0416 42.2673 51.5447 42.3174C44.2429 41.8297 36.1234 42.9515 28.918 42.31C24.0193 41.8742 21.4178 36.2857 24.5477 32.3919C25.8827 30.7305 27.5756 30.241 29.6263 29.974C30.0546 28.3961 30.2382 27.05 31.0967 25.6148C31.9033 24.2668 34.1654 22.0325 35.7878 21.9102L35.7897 21.9083ZM37.4213 23.1933C36.3033 23.336 34.9275 24.0796 36.5295 24.7879C37.2081 24.3002 39.2848 24.812 39.1235 23.6512C39.0271 22.9596 37.9479 23.1247 37.4195 23.1933H37.4213ZM34.3675 24.5709C33.2197 24.8101 31.2228 28.7336 31.7271 29.7849C31.9162 30.1798 32.5263 30.2392 32.81 29.9611C32.9064 29.8683 33.2902 27.9882 33.5887 27.4097C33.8873 26.8312 35.0035 25.7669 35.0684 25.5574C35.2241 25.0474 34.9757 24.443 34.3675 24.5691V24.5709Z" fill="#1A6BB2"/>
<path d="M35.79 21.9121C38.4768 20.6642 42.0572 21.4782 44.323 23.3027C44.9089 23.7737 45.7637 25.0438 46.2106 25.3015C46.6574 25.5593 47.4325 25.5593 47.9962 25.7354C49.2607 26.1322 50.3584 26.9759 51.0871 28.0568C51.3801 28.4926 51.9512 29.9574 52.0587 30.0686C52.207 30.2188 53.5569 30.5322 53.9722 30.7213C58.9637 33.0038 58.4371 40.5652 52.9969 42.0356C56.0712 38.6572 54.9976 33.1132 50.7737 31.2813C50.3992 31.1181 49.5222 30.9753 49.3089 30.8029C49.1625 30.6842 48.5098 29.1527 48.1983 28.7225C47.4863 27.7416 46.3459 26.8609 45.1945 26.453C44.6215 26.2509 43.6703 26.1767 43.2865 26.0024C43.1363 25.9338 41.933 24.4597 41.5454 24.1352C40.2104 23.0227 37.5497 21.7786 35.79 21.9102V21.9121Z" fill="#1A6BB2"/>
<path d="M34.3679 24.5716C34.9761 24.4455 35.2246 25.05 35.0688 25.5599C35.0058 25.7694 33.897 26.8207 33.5892 27.4122C33.2814 28.0037 32.905 29.869 32.8104 29.9636C32.5267 30.2417 31.9167 30.1805 31.7276 29.7874C31.2232 28.7361 33.2202 24.8108 34.3679 24.5734V24.5716Z" fill="#1A6BB2"/>
<path d="M37.4216 23.1914C37.9501 23.1247 39.0292 22.9596 39.1256 23.6494C39.2869 24.8101 37.2103 24.2984 36.5316 24.786C34.9296 24.0777 36.3036 23.3323 37.4235 23.1914H37.4216Z" fill="#1A6BB2"/>
</svg>
