<svg width="64" height="64" viewBox="0 0 64 64" fill="none" xmlns="http://www.w3.org/2000/svg">
<path d="M4.34197 61.1017C3.72019 60.6885 3.0984 60.2465 2.98921 59.4429C2.85575 58.4571 2.85272 53.5688 3.08779 52.7394C3.22124 52.2685 3.90521 51.4376 4.39808 51.4376H7.17943C7.05811 51.0624 6.75177 50.7753 6.5531 50.4168C4.38292 46.5113 8.25163 45.7822 11.1513 47.0612C11.6897 47.2997 12.0855 47.7189 12.6284 47.9119V44.614H10.9829C9.04782 44.614 6.51367 42.4433 6.03899 40.5825C5.0138 36.5555 10.8601 37.5383 12.6284 39.27V33.7559C12.6284 33.4961 13.0682 33.0739 13.373 33.0237C13.7218 32.9675 14.5574 33.1741 14.5574 33.528V39.27C15.0018 39.1257 15.3552 38.711 15.7692 38.4938C17.3585 37.6568 21.2682 37.034 21.3759 39.6665C21.4653 41.8509 18.4383 44.614 16.3166 44.614H14.5574V47.9119C15.1974 47.7311 15.6964 47.204 16.3758 46.9473C18.7659 46.0434 22.5208 46.3305 21.0483 49.8091C20.7965 50.4061 20.3476 50.8467 20.1201 51.4376H25.5691C25.3204 50.8467 24.8897 50.4274 24.641 49.8091C23.1684 46.1619 27.1327 46.0389 29.5409 47.0612L31.0196 47.9119V44.614H29.3741C29.0344 44.614 27.8121 44.2008 27.4587 44.0307C24.5454 42.6377 22.2858 37.5429 27.2237 37.7859C28.6234 37.8543 29.955 38.3753 31.0211 39.27V35.8583H29.1482C28.2322 35.8583 26.3805 34.7159 25.7405 34.0415C24.6364 32.8794 23.3898 30.3168 25.3386 29.3127C26.8749 28.5228 29.7427 29.4145 31.0211 30.5143V28.0701C31.0211 27.6737 31.5762 27.1283 31.9947 27.1055C32.4573 27.0797 33.0639 27.6372 33.0639 28.0701V30.5143C35.6678 28.1263 42.1329 28.3937 38.9481 33.282C38.2641 34.3301 36.2016 35.8583 34.9368 35.8583H33.0639V39.27C34.6472 37.6674 40.1447 36.5828 39.7488 40.1101C39.5198 42.1395 36.7446 44.614 34.7109 44.614H33.0654V47.9119C33.5871 47.7098 33.9344 47.3407 34.4652 47.0961C36.8507 45.9994 40.9227 46.1437 39.4425 49.8076C39.1923 50.4259 38.7616 50.8451 38.5144 51.436H43.9633C43.7359 50.8451 43.287 50.4046 43.0352 49.8076C41.5672 46.3381 45.3161 46.0404 47.7077 46.9458C48.3856 47.2025 48.8861 47.7311 49.526 47.9103V44.6125H47.7668C45.677 44.6125 42.7091 41.9116 42.7061 39.7804C42.7016 37.0294 46.6795 37.631 48.3143 38.4923C48.7283 38.7095 49.0817 39.1242 49.526 39.2685V36.0284C49.526 36.0162 49.3683 35.8583 49.3562 35.8583H47.5394C46.1881 35.8583 44.1484 34.2466 43.4614 33.1194C41.1335 29.2975 44.6124 28.3238 47.738 29.5178L49.5245 30.5143V27.2742C49.5245 27.262 49.3668 27.104 49.3547 27.104H47.4241C45.677 27.104 43.3506 24.7677 42.8578 23.15C41.8311 19.7731 46.1381 19.9995 48.1263 20.9428C48.6237 21.1798 49.0089 21.5853 49.5245 21.76V16.132C49.5245 15.7553 50.2191 15.4606 50.5937 15.5092C50.9379 15.5532 51.4551 16.0348 51.4551 16.3598V21.7615C52.4924 21.1023 53.416 20.4931 54.6869 20.3929C56.5795 20.2425 58.5601 20.4324 58.1021 22.9039C57.7791 24.6508 55.2404 27.1055 53.4418 27.1055H51.4551V30.5173C53.0884 28.9375 58.6208 27.8483 58.1431 31.4743C57.8974 33.3442 55.2055 35.8613 53.328 35.8613H51.4551V39.2731C53.2234 37.5414 59.0697 36.5601 58.0445 40.5855C57.5698 42.4509 55.0463 44.6171 53.1005 44.6171H51.4551V48.0288C53.8088 45.7837 60.2071 45.6029 57.5304 50.4183C57.3317 50.7768 57.0254 51.0639 56.904 51.4391H59.6854C60.2374 51.4391 60.9548 52.4219 61.1049 52.9171V59.7391C60.7227 60.3528 60.3072 60.8268 59.6293 61.1032H4.34197V61.1017ZM49.2955 25.1718C48.8133 23.115 46.7917 22.0562 44.755 22.3297C44.7823 23.1667 45.5618 24.0978 46.2412 24.5368C46.4459 24.669 47.4939 25.1718 47.6501 25.1718H49.2955ZM56.2201 22.3281H54.5746C54.3835 22.3281 53.6025 22.7155 53.3811 22.8385C52.456 23.3535 51.8479 24.1495 51.5673 25.1718H53.2128C53.4039 25.1718 54.1849 24.7844 54.4063 24.6614C55.298 24.1647 55.9835 23.3307 56.2201 22.3281ZM30.9043 33.926C30.419 31.8055 28.2974 30.8409 26.2516 30.9715C26.7535 33.1027 28.7963 34.1949 30.9043 33.926ZM37.8304 30.9715C35.7846 30.8409 33.6614 31.8055 33.1776 33.926C35.2508 34.1934 37.3648 33.0936 37.8304 30.9715ZM49.2955 33.926C48.8345 31.8419 46.7811 30.8591 44.755 30.97C44.9946 33.0511 47.3301 34.2222 49.2955 33.926ZM56.2201 30.9715C54.1636 30.8454 52.0693 31.7933 51.5673 33.926C53.6192 34.1858 55.8228 33.1133 56.2201 30.9715ZM12.5147 42.6818C12.0051 40.5703 9.92742 39.5343 7.86188 39.7273C8.35628 41.8281 10.4491 42.9233 12.5147 42.6818ZM19.4392 39.7257C17.4116 39.5176 15.1838 40.5506 14.7864 42.6803C16.8459 42.896 18.9372 41.819 19.4392 39.7257ZM30.9043 42.6818C30.4463 40.6007 28.2868 39.5085 26.2516 39.7273C26.752 41.8083 28.8509 42.9188 30.9043 42.6818ZM37.8289 39.7257C35.7861 39.5298 33.6402 40.5825 33.1761 42.6803C35.2492 42.9021 37.3178 41.8251 37.8289 39.7257ZM49.2955 42.6818C48.9118 40.6068 46.7432 39.5374 44.755 39.7273C44.987 41.8083 47.3756 42.9233 49.2955 42.6818ZM56.2201 39.7257C54.1727 39.5267 52.0663 40.5886 51.5673 42.6803C53.6329 42.9066 55.7454 41.822 56.2201 39.7257ZM12.5147 51.436C12.0415 49.3519 9.91984 48.2339 7.86188 48.4815C8.36083 50.5747 10.4688 51.635 12.5147 51.436ZM19.4392 48.4815C17.3934 48.24 15.1807 49.2851 14.7864 51.436C16.8732 51.6062 18.8766 50.5869 19.4392 48.4815ZM30.9043 51.436C30.4342 49.2972 28.3277 48.2354 26.2516 48.4815C26.7748 50.5823 28.8373 51.632 30.9043 51.436ZM37.8289 48.4815C35.7649 48.246 33.6387 49.2987 33.1761 51.436C35.2204 51.6183 37.3345 50.5793 37.8289 48.4815ZM49.2955 51.436C48.9103 49.3367 46.7674 48.2567 44.755 48.4815C45.0719 50.6082 47.3104 51.6153 49.2955 51.436ZM56.2201 48.4815C54.1606 48.2339 52.0405 49.3519 51.5673 51.436C53.6238 51.6335 55.7302 50.5808 56.2201 48.4815ZM57.2422 53.3698C39.8019 53.2483 22.351 53.4609 4.90916 53.3698V55.3035H28.4642C28.5355 55.3035 28.9829 55.6559 29.0299 55.7592C29.2649 56.2772 28.9677 57.2357 28.3505 57.2357H4.90916V59.1695C22.3495 59.0783 39.8004 59.291 57.2422 59.1695C57.8837 59.1649 58.5298 59.1725 59.1728 59.1695V57.2357C58.5313 57.2327 57.8853 57.2403 57.2422 57.2357C55.5574 57.2236 52.823 57.4727 51.2883 57.2297C50.2297 57.0626 50.1387 55.5739 51.1745 55.3096C53.1961 55.2868 55.2207 55.3172 57.2422 55.3035C57.8837 55.299 58.5298 55.3066 59.1728 55.3035V53.3698C58.5313 53.3667 57.8853 53.3743 57.2422 53.3698Z" fill="#0B2E4D"/>
<path d="M15.7842 8.71798C25.4082 7.75795 27.5997 22.0871 18.1743 24.074C7.56453 26.3115 5.10165 9.78283 15.7842 8.71798ZM17.3963 22.2147C23.916 21.282 23.9963 11.7151 17.3963 10.7307C13.3684 10.1292 10.0471 13.6868 10.863 17.6727C11.4848 20.7139 14.3556 22.6506 17.3963 22.2147Z" fill="#0B2E4D"/>
<path d="M9.98667 4.61352C10.3946 4.5239 10.7055 4.62871 10.9876 4.92644C11.1499 5.0981 12.0643 6.65208 12.122 6.8617C12.4177 7.94174 11.2409 8.75139 10.4113 7.77769C10.1823 7.50882 9.23901 5.83635 9.23901 5.55685C9.23901 5.16493 9.60147 4.69707 9.98667 4.612V4.61352Z" fill="#0B2E4D"/>
<path d="M5.56128 9.16307C5.95103 9.12509 7.85127 10.2264 8.08785 10.5606C8.69295 11.4128 7.88615 12.3014 6.94892 12.0432C6.70324 11.9748 5.06082 10.9859 4.90765 10.79C4.42387 10.1763 4.77267 9.24054 5.56128 9.16307Z" fill="#0B2E4D"/>
<path d="M27.3555 9.16242C28.1593 9.07887 28.6901 10.0207 28.2321 10.727C28.0092 11.0703 26.1574 12.1094 25.7389 12.1078C25.0231 12.1048 24.5287 11.2648 24.9503 10.6222C25.1444 10.326 27.0188 9.19736 27.3555 9.16394V9.16242Z" fill="#0B2E4D"/>
<path d="M11.0087 24.7356C11.7321 24.5852 12.2886 25.2977 12.1506 25.9964C12.1097 26.2015 11.1573 27.8405 10.9874 28.0198C10.2731 28.7747 9.07809 28.1398 9.26614 27.2147C9.3632 26.7408 10.4961 24.8435 11.0087 24.7371V24.7356Z" fill="#0B2E4D"/>
<path d="M21.6807 24.7362C22.0734 24.6542 22.2994 24.7954 22.5663 25.0537C22.7377 25.2193 23.6734 26.758 23.7265 26.9616C24.0374 28.1586 22.8833 28.8452 22.1038 28.0204C21.9188 27.8244 21.0361 26.3312 20.9709 26.0851C20.8177 25.4988 21.0467 24.8699 21.6807 24.7362Z" fill="#0B2E4D"/>
<path d="M25.4235 20.8749C26.0226 20.6942 28.1154 21.8517 28.3216 22.359C28.7008 23.2902 27.9471 23.9069 27.0174 23.6654C26.8354 23.6183 25.1976 22.6082 25.055 22.4471C24.594 21.9231 24.8108 21.0587 25.4235 20.8734V20.8749Z" fill="#0B2E4D"/>
<path d="M22.5877 4.61337C23.4475 4.42349 23.8964 5.05997 23.7281 5.87418C23.672 6.14153 22.7742 7.69247 22.5664 7.89298C21.7854 8.64795 20.7299 7.9583 20.9422 6.94814C21.0377 6.49546 22.1175 4.71818 22.5877 4.61337Z" fill="#0B2E4D"/>
<path d="M29.8472 15.7691C30.3477 16.3175 30.0626 17.2548 29.3483 17.4143C28.9904 17.4948 27.257 17.4948 26.8991 17.4143C26.1575 17.2487 26.0043 16.1018 26.5942 15.6795C26.9977 15.3894 29.4909 15.3787 29.8472 15.7691Z" fill="#0B2E4D"/>
<path d="M15.8435 29.7973C15.704 29.6697 15.5993 29.4054 15.575 29.2124C15.5159 28.7233 15.5129 26.8731 15.7525 26.5389C16.1756 25.948 17.3191 26.1015 17.4844 26.8443C17.5648 27.2028 17.5648 28.939 17.4844 29.2975C17.3251 30.013 16.3894 30.2986 15.842 29.7973H15.8435Z" fill="#0B2E4D"/>
<path d="M17.2507 3.14417C17.5935 3.48748 17.592 5.60198 17.4797 6.09719C17.2902 6.9357 15.8085 7.01773 15.6038 6.10023C15.5188 5.71895 15.5234 3.9204 15.6098 3.5376C15.7554 2.88442 16.7973 2.6915 17.2507 3.14417Z" fill="#0B2E4D"/>
<path d="M6.57269 17.1711C6.19356 17.5509 4.3009 17.5114 3.74433 17.4111C2.69791 17.2243 2.79497 15.6642 3.72461 15.5123C4.12498 15.447 5.81442 15.4455 6.19204 15.5305C6.90027 15.6885 7.06102 16.6804 6.57421 17.1711H6.57269Z" fill="#0B2E4D"/>
<path d="M7.03528 20.8761C7.87999 20.6969 8.60187 21.4746 8.18634 22.2569C7.96189 22.6807 6.13293 23.6879 5.64763 23.7031C4.83628 23.7274 4.44653 22.9846 4.8105 22.2858C4.95154 22.0139 6.7168 20.9445 7.03528 20.8761Z" fill="#0B2E4D"/>
<path d="M57.2422 53.3701V55.3039C55.2222 55.3175 53.1976 55.2872 51.1745 55.3099C50.1387 55.5743 50.2297 57.0614 51.2883 57.23C52.8215 57.4731 55.5574 57.2255 57.2422 57.2361V59.1698C39.8019 59.2914 22.351 59.0787 4.90918 59.1698V57.2361H28.3505C28.9677 57.2361 29.265 56.2776 29.0299 55.7596C28.9829 55.6563 28.5355 55.3039 28.4642 55.3039H4.90918V53.3701C22.3495 53.4613 39.8004 53.2486 57.2422 53.3701ZM31.7809 55.3282C30.7254 55.5651 30.9574 57.2984 32.0979 57.2376L47.5394 57.2406C48.6965 57.1237 48.9209 55.4497 47.6531 55.3024L31.7824 55.3282H31.7809Z" fill="#F5B741"/>
<path d="M56.2202 30.972C55.8213 33.1139 53.6178 34.1863 51.5674 33.9266C52.0709 31.7938 54.1637 30.8459 56.2202 30.972Z" fill="#1A6BB2"/>
<path d="M19.4391 39.726C18.9357 41.8192 16.8443 42.8962 14.7864 42.6805C15.1852 40.5508 17.413 39.5179 19.4391 39.726Z" fill="#1A6BB2"/>
<path d="M19.4391 48.4818C18.875 50.5872 16.8731 51.6064 14.7864 51.4363C15.1807 49.2854 17.3948 48.2387 19.4391 48.4818Z" fill="#1A6BB2"/>
<path d="M30.9042 51.4362C28.8357 51.6322 26.7747 50.581 26.2515 48.4817C28.3291 48.2356 30.4341 49.2974 30.9042 51.4362Z" fill="#1A6BB2"/>
<path d="M37.8305 30.9716C37.3634 33.0937 35.2509 34.195 33.1777 33.9262C33.663 31.8056 35.7847 30.841 37.8305 30.9716Z" fill="#1A6BB2"/>
<path d="M49.2954 42.6822C47.3755 42.9237 44.9869 41.8087 44.7549 39.7276C46.7431 39.5377 48.9133 40.6087 49.2954 42.6822Z" fill="#1A6BB2"/>
<path d="M37.8288 48.4815C37.3344 50.5793 35.2188 51.6199 33.176 51.4361C33.6386 49.2988 35.7648 48.2445 37.8288 48.4815Z" fill="#1A6BB2"/>
<path d="M49.2954 51.4361C47.3103 51.6153 45.0718 50.6067 44.7549 48.4815C46.7673 48.2582 48.9102 49.3383 49.2954 51.4361Z" fill="#1A6BB2"/>
<path d="M30.9042 33.9262C28.7947 34.1935 26.7534 33.1029 26.2515 30.9716C28.2973 30.841 30.4205 31.8056 30.9042 33.9262Z" fill="#1A6BB2"/>
<path d="M56.2202 48.4817C55.7288 50.581 53.6223 51.6337 51.5674 51.4363C52.0405 49.3521 54.1622 48.2341 56.2202 48.4817Z" fill="#1A6BB2"/>
<path d="M30.9042 42.6818C28.8508 42.9188 26.7504 41.8068 26.2515 39.7273C28.2867 39.5085 30.4462 40.6007 30.9042 42.6818Z" fill="#1A6BB2"/>
<path d="M12.5146 51.4363C10.4672 51.6353 8.36076 50.5734 7.86182 48.4817C9.92129 48.2341 12.0414 49.3521 12.5146 51.4363Z" fill="#1A6BB2"/>
<path d="M12.5146 42.6819C10.449 42.9234 8.35469 41.8282 7.86182 39.7274C9.92736 39.5345 12.0065 40.5704 12.5146 42.6819Z" fill="#1A6BB2"/>
<path d="M37.8288 39.7263C37.3177 41.8256 35.2491 42.9026 33.176 42.6808C33.6401 40.583 35.7875 39.5303 37.8288 39.7263Z" fill="#1A6BB2"/>
<path d="M49.2954 33.9259C47.3285 34.2237 44.9945 33.051 44.7549 30.9699C46.7825 30.859 48.8359 31.8403 49.2954 33.9259Z" fill="#1A6BB2"/>
<path d="M56.2202 39.7258C55.744 41.8221 53.6329 42.9067 51.5674 42.6804C52.0663 40.5871 54.1743 39.5269 56.2202 39.7258Z" fill="#1A6BB2"/>
<path d="M56.2202 22.3281C55.9836 23.3307 55.2981 24.1631 54.4064 24.6614C54.1849 24.7844 53.4024 25.1718 53.2128 25.1718H51.5674C51.8495 24.1495 52.4576 23.3535 53.3812 22.8385C53.6026 22.7155 54.3851 22.3281 54.5747 22.3281H56.2202Z" fill="#1A6BB2"/>
<path d="M49.2954 25.1722H47.65C47.4923 25.1722 46.4458 24.6694 46.2411 24.5372C45.5617 24.0982 44.7822 23.167 44.7549 22.3301C46.7916 22.0566 48.8147 23.1154 49.2954 25.1722Z" fill="#1A6BB2"/>
<path d="M57.2422 53.3699C57.8837 53.3744 58.5297 53.3668 59.1728 53.3699V55.3036C58.5313 55.3067 57.8852 55.2991 57.2422 55.3036V53.3699Z" fill="#F5B741"/>
<path d="M57.2422 57.2361C57.8837 57.2406 58.5297 57.2331 59.1728 57.2361V59.1698C58.5313 59.1729 57.8852 59.1653 57.2422 59.1698V57.2361Z" fill="#F5B741"/>
<path d="M17.3963 10.7303C19.5028 12.4361 20.5492 14.3851 20.3536 17.1604C20.2019 19.3007 18.9841 20.8972 17.3963 22.2157C14.3556 22.6502 11.4848 20.7149 10.863 17.6738C10.0471 13.6878 13.3668 10.1302 17.3963 10.7318V10.7303Z" fill="#F5B741"/>
<path d="M17.3965 22.2145C18.9843 20.8975 20.2021 19.2994 20.3538 17.1591C20.5509 14.3838 19.503 12.4349 17.3965 10.729C23.9965 11.7149 23.9161 21.2803 17.3965 22.213V22.2145Z" fill="#F5B741"/>
<path d="M31.7809 55.3281L47.6515 55.3022C48.9194 55.4496 48.6949 57.1236 47.5378 57.2405L32.0963 57.2375C30.9574 57.2983 30.7238 55.5666 31.7793 55.3281H31.7809Z" fill="#0B2E4D"/>
</svg>
