<svg width="24" height="24" viewBox="0 0 24 24" fill="none" xmlns="http://www.w3.org/2000/svg">
<path d="M17.9264 11.925C17.7858 11.9281 17.5379 11.8171 17.5379 11.6724V9.98358C16.9227 10.1423 16.306 10.1843 15.6743 10.1003V18.4673C15.6743 18.9533 15.0274 19.7681 14.529 19.7681H6.12362V20.6416C6.12362 20.7931 6.53235 21.1427 6.72375 21.0898H16.8994C17.2417 21.0773 17.5208 20.7843 17.5379 20.4471L17.5405 14.9754C17.5846 14.7861 17.7272 14.6751 17.9264 14.6819C18.1443 14.6896 18.3009 14.8743 18.3144 15.0896C18.1966 16.8396 18.4726 18.7987 18.3139 20.5244C18.2713 20.9891 18.0151 21.4466 17.6027 21.6769L17.111 21.8647H6.43432C5.98773 21.6997 5.58522 21.4295 5.41769 20.9596C5.38916 20.8792 5.30824 20.5903 5.30824 20.5254V19.7681H3.81338C3.7584 19.7681 3.40361 19.5964 3.33152 19.5513C2.9119 19.2909 2.71272 18.8755 2.66707 18.391V4.21679C2.71531 3.52174 3.2091 2.90035 3.92905 2.83863L13.794 2.84174C15.8319 1.34895 18.6847 1.85156 19.9275 4.08141C21.0453 6.08666 20.2781 8.53954 18.3216 9.65991L18.3128 11.5926C18.249 11.8192 18.1666 11.9193 17.9269 11.925H17.9264ZM16.055 2.77379C13.405 3.00409 12.1217 6.18521 13.8511 8.21588C15.3081 9.92808 18.0665 9.67911 19.2003 7.74336C20.5619 5.42015 18.7267 2.54142 16.055 2.77327V2.77379ZM13.0735 3.61666H3.92956C3.69356 3.61666 3.40932 4.06014 3.44303 4.29459V18.2748C3.44615 18.5985 3.59501 18.8687 3.90934 18.973L14.336 18.9922C14.7588 18.9097 14.8724 18.6322 14.8999 18.2359L14.8916 9.8731C14.2385 9.61427 13.6685 9.19102 13.2084 8.66403C13.1524 8.59971 12.9252 8.24908 12.8998 8.24545C12.8858 8.24337 12.7151 8.31028 12.628 8.31547C10.3624 8.45448 7.95667 8.20862 5.67651 8.31391C5.4374 8.30458 5.30306 8.13082 5.27245 7.90259C5.2294 7.58567 5.2294 6.59601 5.27245 6.27858C5.2932 6.12453 5.35959 5.99485 5.50379 5.92794L12.2327 5.90097C12.3095 5.87607 12.3225 5.44504 12.3474 5.31693C12.4179 4.95488 12.5383 4.56534 12.7022 4.23546C12.738 4.16388 13.1 3.63948 13.0725 3.61614L13.0735 3.61666ZM12.2965 6.68367H6.04582V7.53795H12.2385C12.2426 7.53795 12.2965 7.48401 12.2965 7.47986V6.68367Z" fill="#17412C"/>
<path d="M17.9263 14.6879C17.7272 14.6806 17.5845 14.7921 17.5404 14.9814L17.5378 20.4531C17.5207 20.7902 17.2417 21.0833 16.8993 21.0957H6.72369C6.53229 21.1487 6.12356 20.7991 6.12356 20.6476V19.7741H14.5294C15.0279 19.7741 15.6747 18.9598 15.6747 18.4733V10.1063C16.3065 10.1903 16.9232 10.1483 17.5384 9.98956V11.6784C17.5384 11.8231 17.7858 11.9341 17.9269 11.931V12.9404C17.3439 12.9259 17.4647 13.7257 17.9269 13.7169V14.6873L17.9263 14.6879Z" fill="#F5B741"/>
<path d="M17.9264 12.9411C18.4939 12.9551 18.3637 13.7093 17.9264 13.7176C17.4643 13.7264 17.3434 12.9266 17.9264 12.9411Z" fill="#17412C"/>
<path d="M13.0735 3.61456C13.101 3.63842 12.7384 4.1623 12.7032 4.23388C12.5393 4.56377 12.4189 4.9533 12.3484 5.31535C12.3235 5.44346 12.31 5.87449 12.2338 5.89939L5.50479 5.92636C5.3606 5.99327 5.2942 6.12295 5.27346 6.277C5.2304 6.59443 5.2304 7.58409 5.27346 7.90101C5.30458 8.12924 5.4384 8.303 5.67752 8.31234C7.95767 8.20704 10.3634 8.45238 12.629 8.31389C12.7161 8.3087 12.8868 8.24179 12.9008 8.24387C12.9267 8.2475 13.1534 8.59865 13.2094 8.66245C13.6695 9.18996 14.2395 9.61269 14.8926 9.87152L14.9009 18.2344C14.8734 18.6306 14.7598 18.9081 14.337 18.9906L3.91034 18.9714C3.59653 18.8672 3.44715 18.5969 3.44404 18.2733V4.29249C3.41084 4.05804 3.69508 3.61456 3.93109 3.61456H13.0745H13.0735ZM5.72679 9.64329C5.15934 9.64485 5.12044 10.3819 5.67596 10.4488H12.6663C13.1871 10.3861 13.2628 9.68946 12.5118 9.63136C10.3338 9.46175 7.92759 9.75222 5.72679 9.64381V9.64329ZM5.60853 11.5054C5.22418 11.5972 5.18113 12.05 5.51205 12.2435C7.9416 12.2928 10.4007 12.2928 12.8302 12.2435C13.1793 12.0391 13.0839 11.5147 12.6653 11.4966L5.60801 11.5059L5.60853 11.5054ZM5.64743 13.3301C5.10799 13.4443 5.17387 14.0936 5.7159 14.1362H12.6269C13.2058 14.09 13.2058 13.3664 12.6269 13.3208L5.64743 13.3301ZM5.56859 15.1928C5.14845 15.3613 5.21744 15.922 5.677 15.9609H12.6658C13.1518 15.9459 13.1715 15.2389 12.7058 15.1834L5.56911 15.1922L5.56859 15.1928Z" fill="#6FD460"/>
<path d="M16.0549 2.77359C18.7262 2.54122 20.5613 5.41995 19.2003 7.74368C18.0664 9.67891 15.308 9.92788 13.851 8.2162C12.1222 6.18501 13.4049 3.00441 16.0549 2.77411V2.77359ZM16.6317 4.01793C16.2904 3.68078 15.7453 4.20621 16.0617 4.56878C16.4108 4.9692 17.0181 4.4002 16.6317 4.01793ZM16.2458 5.1772C16.1016 5.20988 16.001 5.35718 15.9844 5.49827C15.8848 6.3484 16.0612 7.38578 15.9844 8.25666C16.0368 8.69755 16.6883 8.73282 16.7583 8.21361C16.8662 7.41379 16.6851 6.39975 16.7614 5.57711C16.7391 5.30635 16.5212 5.11547 16.2458 5.17772V5.1772Z" fill="#F5B741"/>
<path d="M12.2965 6.68402V7.48021C12.2965 7.48436 12.2425 7.5383 12.2384 7.5383H6.04576V6.68402H12.2965Z" fill="#F5B741"/>
<path d="M5.6475 13.3392L12.627 13.3298C13.2059 13.376 13.2059 14.0996 12.627 14.1452H5.71545C5.17394 14.1027 5.10807 13.4533 5.64699 13.3392H5.6475Z" fill="#17412C"/>
<path d="M5.72686 9.65374C7.92766 9.76215 10.3339 9.47168 12.5118 9.64129C13.2629 9.69991 13.1877 10.396 12.6664 10.4587H5.67603C5.11999 10.3918 5.15889 9.65478 5.72686 9.65322V9.65374Z" fill="#17412C"/>
<path d="M5.60851 11.5059L12.6658 11.4965C13.0844 11.5147 13.1798 12.0396 12.8307 12.2434C10.4012 12.2927 7.94209 12.2927 5.51255 12.2434C5.18163 12.0505 5.22468 11.5971 5.60903 11.5053L5.60851 11.5059Z" fill="#17412C"/>
<path d="M5.5685 15.1997L12.7051 15.1909C13.1709 15.2459 13.1517 15.9534 12.6652 15.9684H5.67691C5.21735 15.9295 5.14888 15.3683 5.5685 15.2003V15.1997Z" fill="#17412C"/>
<path d="M16.2458 5.18191C16.5217 5.11966 16.739 5.31106 16.7613 5.5813C16.6846 6.40446 16.8656 7.4185 16.7582 8.2178C16.6882 8.737 16.0362 8.70173 15.9844 8.26085C16.0611 7.38997 15.8848 6.35259 15.9844 5.50246C16.0009 5.36137 16.1016 5.21406 16.2458 5.18139V5.18191Z" fill="#17412C"/>
<path d="M16.6317 4.0214C17.0181 4.40315 16.4107 4.97216 16.0617 4.57225C15.7453 4.20968 16.2904 3.68425 16.6317 4.0214Z" fill="#17412C"/>
</svg>
